<?xml version="1.0" standalone="no"?><!DOCTYPE svg PUBLIC "-//W3C//DTD SVG 1.1//EN" "http://www.w3.org/Graphics/SVG/1.1/DTD/svg11.dtd"><svg t="1646205723716" class="icon" viewBox="0 0 1024 1024" version="1.1" xmlns="http://www.w3.org/2000/svg" p-id="3118" xmlns:xlink="http://www.w3.org/1999/xlink" width="200" height="200"><defs><style type="text/css"></style></defs><path d="M277.28 775.648h467.2L664.672 256H357.104l-79.808 519.648z m430.672-554.08l89.632 583.648a16 16 0 0 1-15.808 18.432H240a16 16 0 0 1-15.808-18.432l89.632-583.648a16 16 0 0 1 15.824-13.568h362.48a16 16 0 0 1 15.824 13.568zM502.88 298.784h16a16 16 0 0 1 16 16v62.608a16 16 0 0 1-16 16h-16a16 16 0 0 1-16-16v-62.608a16 16 0 0 1 16-16z m0 166.96h16a16 16 0 0 1 16 16v62.608a16 16 0 0 1-16 16h-16a16 16 0 0 1-16-16v-62.608a16 16 0 0 1 16-16z m0 166.944h16a16 16 0 0 1 16 16v62.624a16 16 0 0 1-16 16h-16a16 16 0 0 1-16-16v-62.624a16 16 0 0 1 16-16z" p-id="3119"></path></svg>